<?xml version="1.0" encoding="UTF-8"?>
<svg xmlns="http://www.w3.org/2000/svg" xmlns:xlink="http://www.w3.org/1999/xlink" width="300px" height="96px" viewBox="0 0 300 96" version="1.1">
<g id="surface1">
<path style=" stroke:none;fill-rule:nonzero;fill:rgb(100%,100%,100%);fill-opacity:1;" d="M 208.890625 96.277344 C 139.257812 96.277344 69.769531 96.277344 0.277344 96.277344 C 0.277344 64.277344 0.277344 32.277344 0.277344 0.277344 C 100.277344 0.277344 200.277344 0.277344 300.277344 0.277344 C 300.277344 32.277344 300.277344 64.277344 300.277344 96.277344 C 269.859375 96.277344 239.445312 96.277344 208.890625 96.277344 M 50.625 66.074219 C 60.6875 63.511719 70.835938 63.308594 81.046875 64.992188 C 83.234375 65.351562 85.386719 65.910156 87.570312 66.296875 C 87.976562 66.367188 88.550781 66.144531 88.859375 65.855469 C 89.054688 65.671875 89.039062 65.007812 88.855469 64.75 C 88.65625 64.46875 88.160156 64.347656 87.769531 64.265625 C 85.125 63.703125 82.476562 63.167969 80.183594 62.695312 C 80.6875 61.261719 81.558594 59.871094 81.570312 58.476562 C 81.578125 57.035156 80.746094 55.589844 80.308594 54.226562 C 80.890625 53.136719 81.722656 51.957031 82.183594 50.652344 C 84.371094 44.464844 86.457031 38.246094 88.585938 32.039062 C 89.335938 29.847656 90.242188 29.207031 92.582031 29.195312 C 93.921875 29.1875 95.265625 29.191406 96.609375 29.191406 C 97.347656 29.191406 98.015625 28.917969 97.824219 28.105469 C 97.730469 27.707031 97.046875 27.207031 96.605469 27.179688 C 94.945312 27.078125 93.269531 27.085938 91.609375 27.183594 C 89.1875 27.324219 87.578125 28.652344 86.757812 30.914062 C 86.21875 32.390625 85.695312 33.875 85.261719 35.386719 C 85.015625 36.25 84.585938 36.484375 83.699219 36.480469 C 75.878906 36.441406 68.054688 36.457031 60.230469 36.457031 C 59.859375 36.457031 59.429688 36.339844 59.136719 36.488281 C 58.714844 36.703125 58.390625 37.117188 58.027344 37.445312 C 58.394531 37.820312 58.710938 38.292969 59.152344 38.535156 C 59.476562 38.710938 59.96875 38.578125 60.386719 38.578125 C 67.746094 38.578125 75.105469 38.578125 82.464844 38.578125 C 82.953125 38.578125 83.4375 38.578125 84.023438 38.578125 C 83.902344 39.09375 83.808594 39.398438 83.761719 39.710938 C 83.527344 41.324219 82.667969 41.78125 81.023438 41.742188 C 75.746094 41.613281 70.46875 41.691406 65.191406 41.695312 C 63.894531 41.695312 62.59375 41.636719 61.308594 41.742188 C 60.941406 41.773438 60.617188 42.300781 60.273438 42.601562 C 60.601562 42.964844 60.882812 43.398438 61.277344 43.671875 C 61.5 43.824219 61.90625 43.707031 62.230469 43.707031 C 67.691406 43.707031 73.15625 43.707031 78.617188 43.707031 C 79.804688 43.707031 80.992188 43.707031 82.347656 43.707031 C 81.984375 44.820312 81.632812 45.765625 81.371094 46.738281 C 81.183594 47.4375 80.820312 47.65625 80.097656 47.652344 C 73.386719 47.625 66.671875 47.625 59.960938 47.648438 C 59.121094 47.652344 58.734375 47.378906 58.519531 46.546875 C 57.648438 43.191406 56.710938 39.851562 55.800781 36.503906 C 55.5 35.402344 55.203125 34.296875 54.855469 33.015625 C 55.546875 33.015625 56.046875 33.015625 56.546875 33.015625 C 65.246094 33.015625 73.949219 33.015625 82.652344 33.015625 C 83.023438 33.015625 83.441406 33.117188 83.75 32.980469 C 84.117188 32.816406 84.644531 32.433594 84.632812 32.164062 C 84.617188 31.769531 84.265625 31.273438 83.910156 31.039062 C 83.609375 30.84375 83.105469 30.941406 82.691406 30.941406 C 73.757812 30.9375 64.820312 30.9375 55.886719 30.941406 C 53.175781 30.941406 52.390625 31.96875 53.101562 34.605469 C 54.203125 38.667969 55.316406 42.726562 56.425781 46.785156 C 57.066406 49.132812 57.925781 49.785156 60.386719 49.785156 C 66.496094 49.785156 72.605469 49.785156 78.71875 49.785156 C 79.199219 49.785156 79.683594 49.785156 80.207031 49.785156 C 79.535156 52.289062 78.671875 53.027344 76.285156 53.042969 C 71.238281 53.078125 66.195312 53.089844 61.148438 53.050781 C 57.453125 53.019531 54.703125 56.421875 55.808594 59.867188 C 56.117188 60.835938 56.78125 61.6875 57.292969 62.609375 C 56.828125 62.695312 56.328125 62.777344 55.832031 62.882812 C 53.664062 63.351562 51.484375 63.773438 49.347656 64.34375 C 48.976562 64.441406 48.773438 65.171875 48.492188 65.613281 C 48.910156 65.847656 49.3125 66.128906 49.753906 66.300781 C 49.929688 66.371094 50.195312 66.210938 50.625 66.074219 M 163.191406 58.449219 C 163.867188 58.449219 164.542969 58.449219 165.335938 58.449219 C 165.335938 53.84375 165.335938 49.398438 165.335938 44.957031 C 166.84375 48.566406 168.128906 52.210938 169.40625 55.855469 C 170.347656 58.539062 170.34375 58.539062 173.191406 58.425781 C 173.277344 58.421875 173.363281 58.371094 173.503906 58.320312 C 175.042969 53.9375 176.589844 49.523438 178.140625 45.109375 C 178.25 45.128906 178.363281 45.148438 178.476562 45.167969 C 178.476562 49.574219 178.476562 53.980469 178.476562 58.367188 C 180.105469 58.367188 181.566406 58.367188 183 58.367188 C 183 51.777344 183 45.273438 183 38.695312 C 181.148438 38.695312 179.394531 38.75 177.648438 38.675781 C 176.78125 38.636719 176.449219 38.972656 176.191406 39.746094 C 175.074219 43.125 173.898438 46.480469 172.734375 49.84375 C 172.5 50.523438 172.222656 51.1875 171.855469 52.148438 C 170.21875 47.449219 168.691406 43.066406 167.199219 38.796875 C 164.917969 38.796875 162.8125 38.796875 160.6875 38.796875 C 160.6875 45.367188 160.6875 51.835938 160.6875 58.449219 C 161.472656 58.449219 162.199219 58.449219 163.191406 58.449219 M 195.332031 42.617188 C 194.96875 41.570312 194.640625 40.507812 194.222656 39.480469 C 194.09375 39.167969 193.726562 38.742188 193.457031 38.734375 C 191.488281 38.667969 189.515625 38.699219 187.5625 38.699219 C 187.5625 45.378906 187.5625 51.882812 187.5625 58.363281 C 189.113281 58.363281 190.566406 58.363281 192.140625 58.363281 C 192.140625 53.90625 192.140625 49.53125 192.140625 45.160156 C 192.238281 45.140625 192.332031 45.121094 192.425781 45.101562 C 193.992188 49.550781 195.554688 53.996094 197.121094 58.449219 C 197.65625 58.449219 198.082031 58.386719 198.484375 58.460938 C 199.871094 58.714844 200.464844 58.136719 200.890625 56.785156 C 202.058594 53.085938 203.417969 49.445312 204.707031 45.785156 C 204.816406 45.476562 204.980469 45.191406 205.121094 44.894531 C 205.195312 44.917969 205.269531 44.9375 205.34375 44.960938 C 205.34375 49.4375 205.34375 53.910156 205.34375 58.375 C 206.90625 58.375 208.367188 58.375 209.855469 58.375 C 209.855469 51.800781 209.855469 45.296875 209.855469 38.746094 C 207.652344 38.746094 205.539062 38.746094 203.382812 38.746094 C 201.847656 43.164062 200.320312 47.550781 198.691406 52.238281 C 197.535156 48.914062 196.472656 45.867188 195.332031 42.617188 M 141.972656 57.734375 C 148.640625 61.230469 155.828125 58.039062 157.082031 50.964844 C 157.3125 49.660156 157.320312 48.277344 157.183594 46.953125 C 156.78125 43.140625 155.136719 40.046875 151.296875 38.8125 C 147.25 37.515625 143.339844 37.761719 140.066406 40.929688 C 136.277344 44.597656 136.140625 54.425781 141.972656 57.734375 M 242.617188 51.339844 C 243.925781 51.753906 244.335938 52.753906 244.410156 54.011719 C 244.472656 55.164062 244.511719 56.332031 244.730469 57.457031 C 244.808594 57.839844 245.378906 58.367188 245.765625 58.402344 C 247.046875 58.523438 248.34375 58.449219 249.464844 58.449219 C 249.347656 56.964844 249.179688 55.554688 249.140625 54.140625 C 249.085938 52.101562 248.648438 50.300781 246.894531 49.488281 C 247.757812 48.375 248.921875 47.410156 249.386719 46.175781 C 250.796875 42.414062 248.46875 39.0625 244.164062 38.792969 C 240.488281 38.5625 236.78125 38.746094 233.019531 38.746094 C 233.019531 45.308594 233.019531 51.824219 233.019531 58.386719 C 234.527344 58.386719 235.984375 58.386719 237.582031 58.386719 C 237.582031 55.988281 237.582031 53.652344 237.582031 51.261719 C 239.273438 51.261719 240.835938 51.261719 242.617188 51.339844 M 218.902344 44.390625 C 218.902344 43.808594 218.902344 43.222656 218.902344 42.535156 C 222.621094 42.535156 226.164062 42.535156 229.726562 42.535156 C 229.726562 41.203125 229.726562 39.980469 229.726562 38.808594 C 224.523438 38.808594 219.414062 38.808594 214.308594 38.808594 C 214.308594 45.390625 214.308594 51.863281 214.308594 58.382812 C 219.585938 58.382812 224.792969 58.382812 229.996094 58.382812 C 229.996094 57.09375 229.996094 55.871094 229.996094 54.535156 C 226.257812 54.535156 222.625 54.535156 218.964844 54.535156 C 218.964844 53.042969 218.964844 51.667969 218.964844 50.128906 C 222.183594 50.128906 225.34375 50.128906 228.441406 50.128906 C 228.441406 48.832031 228.441406 47.703125 228.441406 46.445312 C 225.199219 46.445312 222.078125 46.445312 218.902344 46.445312 C 218.902344 45.765625 218.902344 45.210938 218.902344 44.390625 M 267.699219 44.148438 C 267.839844 43.84375 268.140625 43.519531 268.101562 43.238281 C 267.769531 40.886719 266.324219 39.417969 264.152344 38.6875 C 261.472656 37.789062 258.769531 37.925781 256.140625 38.933594 C 253.777344 39.839844 252.683594 41.558594 252.695312 44.082031 C 252.707031 46.734375 253.792969 48.351562 256.273438 49.257812 C 257.265625 49.621094 258.316406 49.820312 259.335938 50.117188 C 260.484375 50.449219 261.65625 50.734375 262.761719 51.175781 C 263.734375 51.566406 264.335938 52.351562 264.140625 53.480469 C 263.949219 54.578125 263.058594 54.921875 262.113281 55.074219 C 259.058594 55.570312 257.714844 54.839844 256.480469 52.050781 C 255.15625 52.050781 253.816406 52.046875 252.476562 52.058594 C 252.347656 52.058594 252.21875 52.132812 252.09375 52.167969 C 252.136719 54.542969 252.886719 56.136719 254.523438 57.347656 C 257.5 59.546875 263.484375 59.644531 266.503906 57.5 C 268.527344 56.0625 269.101562 53.984375 268.882812 51.628906 C 268.683594 49.503906 267.390625 48.183594 265.507812 47.441406 C 264.398438 47.003906 263.203125 46.785156 262.050781 46.457031 C 260.859375 46.121094 259.613281 45.898438 258.5 45.378906 C 258.015625 45.152344 257.515625 44.300781 257.554688 43.773438 C 257.59375 43.246094 258.203125 42.550781 258.730469 42.308594 C 260.820312 41.347656 262.886719 42.101562 264.042969 44.152344 C 265.15625 44.152344 266.308594 44.152344 267.699219 44.148438 M 113.691406 54.589844 C 110.421875 54.589844 107.152344 54.589844 103.871094 54.589844 C 103.871094 53.054688 103.871094 51.6875 103.871094 50.167969 C 107.0625 50.167969 110.179688 50.167969 113.28125 50.167969 C 113.28125 48.878906 113.28125 47.746094 113.28125 46.464844 C 110.066406 46.464844 106.949219 46.464844 103.894531 46.464844 C 103.894531 45.089844 103.894531 43.863281 103.894531 42.519531 C 107.535156 42.519531 111.074219 42.519531 114.597656 42.519531 C 114.597656 41.175781 114.597656 39.957031 114.597656 38.761719 C 109.414062 38.761719 104.339844 38.761719 99.207031 38.761719 C 99.207031 45.332031 99.207031 51.835938 99.207031 58.378906 C 104.476562 58.378906 109.679688 58.378906 114.984375 58.378906 C 114.984375 57.34375 114.9375 56.378906 115 55.417969 C 115.054688 54.558594 114.550781 54.546875 113.691406 54.589844 M 124.984375 38.195312 C 121.0625 38.71875 118.4375 40.808594 117.355469 44.667969 C 116.59375 47.394531 116.558594 50.179688 117.3125 52.902344 C 118.03125 55.492188 119.632812 57.433594 122.230469 58.339844 C 124.691406 59.195312 127.230469 59.289062 129.746094 58.617188 C 133.105469 57.714844 135.449219 54.617188 135.1875 51.523438 C 133.765625 51.523438 132.339844 51.523438 131.4375 51.523438 C 130.316406 52.800781 129.613281 54.105469 128.523438 54.742188 C 126.316406 56.03125 123.472656 54.808594 122.488281 52.300781 C 121.503906 49.792969 121.554688 47.210938 122.542969 44.710938 C 123.28125 42.835938 124.726562 41.945312 126.78125 42 C 129.023438 42.058594 130.234375 43.257812 130.65625 45.320312 C 132.214844 45.320312 133.675781 45.320312 135.15625 45.320312 C 134.910156 41.964844 133.230469 39.714844 130.148438 38.769531 C 128.597656 38.292969 126.878906 38.355469 124.984375 38.195312 Z M 124.984375 38.195312 "/>
<path style=" stroke:none;fill-rule:nonzero;fill:rgb(8.235294%,69.411767%,8.235294%);fill-opacity:1;" d="M 50.519531 66.113281 C 50.195312 66.210938 49.929688 66.371094 49.753906 66.300781 C 49.3125 66.128906 48.910156 65.847656 48.492188 65.613281 C 48.773438 65.171875 48.976562 64.441406 49.347656 64.34375 C 51.484375 63.773438 53.664062 63.351562 55.832031 62.882812 C 56.328125 62.777344 56.828125 62.695312 57.292969 62.609375 C 56.78125 61.6875 56.117188 60.835938 55.808594 59.867188 C 54.703125 56.421875 57.453125 53.019531 61.148438 53.050781 C 66.195312 53.089844 71.238281 53.078125 76.285156 53.042969 C 78.671875 53.027344 79.535156 52.289062 80.207031 49.785156 C 79.683594 49.785156 79.199219 49.785156 78.71875 49.785156 C 72.605469 49.785156 66.496094 49.785156 60.386719 49.785156 C 57.925781 49.785156 57.066406 49.132812 56.425781 46.785156 C 55.316406 42.726562 54.203125 38.667969 53.101562 34.605469 C 52.390625 31.96875 53.175781 30.941406 55.886719 30.941406 C 64.820312 30.9375 73.757812 30.9375 82.691406 30.941406 C 83.105469 30.941406 83.609375 30.84375 83.910156 31.039062 C 84.265625 31.273438 84.617188 31.769531 84.632812 32.164062 C 84.644531 32.433594 84.117188 32.816406 83.75 32.980469 C 83.441406 33.117188 83.023438 33.015625 82.652344 33.015625 C 73.949219 33.015625 65.246094 33.015625 56.546875 33.015625 C 56.046875 33.015625 55.546875 33.015625 54.855469 33.015625 C 55.203125 34.296875 55.5 35.402344 55.800781 36.503906 C 56.710938 39.851562 57.648438 43.191406 58.519531 46.546875 C 58.734375 47.378906 59.121094 47.652344 59.960938 47.648438 C 66.671875 47.625 73.386719 47.625 80.097656 47.652344 C 80.820312 47.65625 81.183594 47.4375 81.371094 46.738281 C 81.632812 45.765625 81.984375 44.820312 82.347656 43.707031 C 80.992188 43.707031 79.804688 43.707031 78.617188 43.707031 C 73.15625 43.707031 67.691406 43.707031 62.230469 43.707031 C 61.90625 43.707031 61.5 43.824219 61.277344 43.671875 C 60.882812 43.398438 60.601562 42.964844 60.273438 42.601562 C 60.617188 42.300781 60.941406 41.773438 61.308594 41.742188 C 62.59375 41.636719 63.894531 41.695312 65.191406 41.695312 C 70.46875 41.691406 75.746094 41.613281 81.023438 41.742188 C 82.667969 41.78125 83.527344 41.324219 83.761719 39.710938 C 83.808594 39.398438 83.902344 39.09375 84.023438 38.578125 C 83.4375 38.578125 82.953125 38.578125 82.464844 38.578125 C 75.105469 38.578125 67.746094 38.578125 60.386719 38.578125 C 59.96875 38.578125 59.476562 38.710938 59.152344 38.535156 C 58.710938 38.292969 58.394531 37.820312 58.027344 37.445312 C 58.390625 37.117188 58.714844 36.703125 59.136719 36.488281 C 59.429688 36.339844 59.859375 36.457031 60.230469 36.457031 C 68.054688 36.457031 75.878906 36.441406 83.699219 36.480469 C 84.585938 36.484375 85.015625 36.25 85.261719 35.386719 C 85.695312 33.875 86.21875 32.390625 86.757812 30.914062 C 87.578125 28.652344 89.1875 27.324219 91.609375 27.183594 C 93.269531 27.085938 94.945312 27.078125 96.605469 27.179688 C 97.046875 27.207031 97.730469 27.707031 97.824219 28.105469 C 98.015625 28.917969 97.347656 29.191406 96.609375 29.191406 C 95.265625 29.191406 93.921875 29.1875 92.582031 29.195312 C 90.242188 29.207031 89.335938 29.847656 88.585938 32.039062 C 86.457031 38.246094 84.371094 44.464844 82.183594 50.652344 C 81.722656 51.957031 80.890625 53.136719 80.308594 54.226562 C 80.746094 55.589844 81.578125 57.035156 81.570312 58.476562 C 81.558594 59.871094 80.6875 61.261719 80.183594 62.695312 C 82.476562 63.167969 85.125 63.703125 87.769531 64.265625 C 88.160156 64.347656 88.65625 64.46875 88.855469 64.75 C 89.039062 65.007812 89.054688 65.671875 88.859375 65.855469 C 88.550781 66.144531 87.976562 66.367188 87.570312 66.296875 C 85.386719 65.910156 83.234375 65.351562 81.046875 64.992188 C 70.835938 63.308594 60.6875 63.511719 50.519531 66.113281 M 66.066406 59.507812 C 65.753906 60.257812 65.441406 61.011719 65.085938 61.863281 C 67.484375 61.863281 69.835938 61.863281 72.386719 61.863281 C 70.601562 59.648438 70.859375 57.421875 72.0625 55.113281 C 70.757812 55.113281 69.652344 55.113281 68.546875 55.113281 C 67.46875 55.113281 66.390625 55.113281 65.546875 55.113281 C 65.742188 56.59375 65.917969 57.929688 66.066406 59.507812 M 79.476562 57.480469 C 78.640625 55.507812 77.089844 54.6875 75.347656 55.292969 C 73.769531 55.839844 72.855469 57.542969 73.265625 59.160156 C 73.703125 60.878906 75.332031 61.898438 77.058594 61.539062 C 78.824219 61.167969 79.773438 59.6875 79.476562 57.480469 M 62.285156 61.265625 C 63.851562 60.242188 64.375 59.082031 63.964844 57.554688 C 63.597656 56.191406 62.445312 55.210938 61.089844 55.128906 C 59.699219 55.046875 58.648438 55.664062 58.023438 56.871094 C 57.398438 58.074219 57.460938 59.324219 58.339844 60.386719 C 59.324219 61.585938 60.613281 61.898438 62.285156 61.265625 Z M 62.285156 61.265625 "/>
<path style=" stroke:none;fill-rule:nonzero;fill:rgb(14.509805%,20.784314%,25.098041%);fill-opacity:1;" d="M 163.058594 58.449219 C 162.199219 58.449219 161.472656 58.449219 160.6875 58.449219 C 160.6875 51.835938 160.6875 45.367188 160.6875 38.796875 C 162.8125 38.796875 164.917969 38.796875 167.199219 38.796875 C 168.691406 43.066406 170.21875 47.449219 171.855469 52.148438 C 172.222656 51.1875 172.5 50.523438 172.734375 49.84375 C 173.898438 46.480469 175.074219 43.125 176.191406 39.746094 C 176.449219 38.972656 176.78125 38.636719 177.648438 38.675781 C 179.394531 38.75 181.148438 38.695312 183 38.695312 C 183 45.273438 183 51.777344 183 58.367188 C 181.566406 58.367188 180.105469 58.367188 178.476562 58.367188 C 178.476562 53.980469 178.476562 49.574219 178.476562 45.167969 C 178.363281 45.148438 178.25 45.128906 178.140625 45.109375 C 176.589844 49.523438 175.042969 53.9375 173.503906 58.320312 C 173.363281 58.371094 173.277344 58.421875 173.191406 58.425781 C 170.34375 58.539062 170.347656 58.539062 169.40625 55.855469 C 168.128906 52.210938 166.84375 48.566406 165.335938 44.957031 C 165.335938 49.398438 165.335938 53.84375 165.335938 58.449219 C 164.542969 58.449219 163.867188 58.449219 163.058594 58.449219 Z M 163.058594 58.449219 "/>
<path style=" stroke:none;fill-rule:nonzero;fill:rgb(14.509805%,20.784314%,25.098041%);fill-opacity:1;" d="M 195.371094 42.71875 C 196.472656 45.867188 197.535156 48.914062 198.691406 52.238281 C 200.320312 47.550781 201.847656 43.164062 203.382812 38.746094 C 205.539062 38.746094 207.652344 38.746094 209.855469 38.746094 C 209.855469 45.296875 209.855469 51.800781 209.855469 58.375 C 208.367188 58.375 206.90625 58.375 205.34375 58.375 C 205.34375 53.910156 205.34375 49.4375 205.34375 44.960938 C 205.269531 44.9375 205.195312 44.917969 205.121094 44.894531 C 204.980469 45.191406 204.816406 45.476562 204.707031 45.785156 C 203.417969 49.445312 202.058594 53.085938 200.890625 56.785156 C 200.464844 58.136719 199.871094 58.714844 198.484375 58.460938 C 198.082031 58.386719 197.65625 58.449219 197.121094 58.449219 C 195.554688 53.996094 193.992188 49.550781 192.425781 45.101562 C 192.332031 45.121094 192.238281 45.140625 192.140625 45.160156 C 192.140625 49.53125 192.140625 53.90625 192.140625 58.363281 C 190.566406 58.363281 189.113281 58.363281 187.5625 58.363281 C 187.5625 51.882812 187.5625 45.378906 187.5625 38.699219 C 189.515625 38.699219 191.488281 38.667969 193.457031 38.734375 C 193.726562 38.742188 194.09375 39.167969 194.222656 39.480469 C 194.640625 40.507812 194.96875 41.570312 195.371094 42.71875 Z M 195.371094 42.71875 "/>
<path style=" stroke:none;fill-rule:nonzero;fill:rgb(14.509805%,20.392157%,24.705882%);fill-opacity:1;" d="M 141.882812 57.679688 C 136.140625 54.425781 136.277344 44.597656 140.066406 40.929688 C 143.339844 37.761719 147.25 37.515625 151.296875 38.8125 C 155.136719 40.046875 156.78125 43.140625 157.183594 46.953125 C 157.320312 48.277344 157.3125 49.660156 157.082031 50.964844 C 155.828125 58.039062 148.640625 61.230469 141.882812 57.679688 M 146.167969 42.089844 C 144.59375 42.4375 143.515625 43.371094 143.003906 44.894531 C 142.179688 47.339844 142.140625 49.816406 143.003906 52.246094 C 143.730469 54.277344 145.183594 55.164062 147.40625 55.148438 C 149.507812 55.132812 151.105469 54.238281 151.609375 52.21875 C 152.058594 50.417969 152.28125 48.457031 152.085938 46.621094 C 151.714844 43.183594 149.894531 41.878906 146.167969 42.089844 Z M 146.167969 42.089844 "/>
<path style=" stroke:none;fill-rule:nonzero;fill:rgb(13.725491%,20%,24.313726%);fill-opacity:1;" d="M 242.507812 51.300781 C 240.835938 51.261719 239.273438 51.261719 237.582031 51.261719 C 237.582031 53.652344 237.582031 55.988281 237.582031 58.386719 C 235.984375 58.386719 234.527344 58.386719 233.019531 58.386719 C 233.019531 51.824219 233.019531 45.308594 233.019531 38.746094 C 236.78125 38.746094 240.488281 38.5625 244.164062 38.792969 C 248.46875 39.0625 250.796875 42.414062 249.386719 46.175781 C 248.921875 47.410156 247.757812 48.375 246.894531 49.488281 C 248.648438 50.300781 249.085938 52.101562 249.140625 54.140625 C 249.179688 55.554688 249.347656 56.964844 249.464844 58.449219 C 248.34375 58.449219 247.046875 58.523438 245.765625 58.402344 C 245.378906 58.367188 244.808594 57.839844 244.730469 57.457031 C 244.511719 56.332031 244.472656 55.164062 244.410156 54.011719 C 244.335938 52.753906 243.925781 51.753906 242.507812 51.300781 M 238.804688 42.558594 C 238.410156 42.589844 238.015625 42.621094 237.636719 42.648438 C 237.636719 44.339844 237.636719 45.898438 237.636719 47.542969 C 239.320312 47.542969 240.933594 47.632812 242.535156 47.519531 C 244.105469 47.40625 244.835938 46.453125 244.785156 44.910156 C 244.738281 43.445312 244.019531 42.707031 242.402344 42.597656 C 241.292969 42.523438 240.179688 42.566406 238.804688 42.558594 Z M 238.804688 42.558594 "/>
<path style=" stroke:none;fill-rule:nonzero;fill:rgb(14.901961%,21.176471%,25.098041%);fill-opacity:1;" d="M 218.902344 44.527344 C 218.902344 45.210938 218.902344 45.765625 218.902344 46.445312 C 222.078125 46.445312 225.199219 46.445312 228.441406 46.445312 C 228.441406 47.703125 228.441406 48.832031 228.441406 50.128906 C 225.34375 50.128906 222.183594 50.128906 218.964844 50.128906 C 218.964844 51.667969 218.964844 53.042969 218.964844 54.535156 C 222.625 54.535156 226.257812 54.535156 229.996094 54.535156 C 229.996094 55.871094 229.996094 57.09375 229.996094 58.382812 C 224.792969 58.382812 219.585938 58.382812 214.308594 58.382812 C 214.308594 51.863281 214.308594 45.390625 214.308594 38.808594 C 219.414062 38.808594 224.523438 38.808594 229.726562 38.808594 C 229.726562 39.980469 229.726562 41.203125 229.726562 42.535156 C 226.164062 42.535156 222.621094 42.535156 218.902344 42.535156 C 218.902344 43.222656 218.902344 43.808594 218.902344 44.527344 Z M 218.902344 44.527344 "/>
<path style=" stroke:none;fill-rule:nonzero;fill:rgb(14.509805%,20.784314%,25.098041%);fill-opacity:1;" d="M 267.578125 44.148438 C 266.308594 44.152344 265.15625 44.152344 264.042969 44.152344 C 262.886719 42.101562 260.820312 41.347656 258.730469 42.308594 C 258.203125 42.550781 257.59375 43.246094 257.554688 43.773438 C 257.515625 44.300781 258.015625 45.152344 258.5 45.378906 C 259.613281 45.898438 260.859375 46.121094 262.050781 46.457031 C 263.203125 46.785156 264.398438 47.003906 265.507812 47.441406 C 267.390625 48.183594 268.683594 49.503906 268.882812 51.628906 C 269.101562 53.984375 268.527344 56.0625 266.503906 57.5 C 263.484375 59.644531 257.5 59.546875 254.523438 57.347656 C 252.886719 56.136719 252.136719 54.542969 252.09375 52.167969 C 252.21875 52.132812 252.347656 52.058594 252.476562 52.058594 C 253.816406 52.046875 255.15625 52.050781 256.480469 52.050781 C 257.714844 54.839844 259.058594 55.570312 262.113281 55.074219 C 263.058594 54.921875 263.949219 54.578125 264.140625 53.480469 C 264.335938 52.351562 263.734375 51.566406 262.761719 51.175781 C 261.65625 50.734375 260.484375 50.449219 259.335938 50.117188 C 258.316406 49.820312 257.265625 49.621094 256.273438 49.257812 C 253.792969 48.351562 252.707031 46.734375 252.695312 44.082031 C 252.683594 41.558594 253.777344 39.839844 256.140625 38.933594 C 258.769531 37.925781 261.472656 37.789062 264.152344 38.6875 C 266.324219 39.417969 267.769531 40.886719 268.101562 43.238281 C 268.140625 43.519531 267.839844 43.84375 267.578125 44.148438 Z M 267.578125 44.148438 "/>
<path style=" stroke:none;fill-rule:nonzero;fill:rgb(14.509805%,20.784314%,25.098041%);fill-opacity:1;" d="M 113.820312 54.589844 C 114.550781 54.546875 115.054688 54.558594 115 55.417969 C 114.9375 56.378906 114.984375 57.34375 114.984375 58.378906 C 109.679688 58.378906 104.476562 58.378906 99.207031 58.378906 C 99.207031 51.835938 99.207031 45.332031 99.207031 38.761719 C 104.339844 38.761719 109.414062 38.761719 114.597656 38.761719 C 114.597656 39.957031 114.597656 41.175781 114.597656 42.519531 C 111.074219 42.519531 107.535156 42.519531 103.894531 42.519531 C 103.894531 43.863281 103.894531 45.089844 103.894531 46.464844 C 106.949219 46.464844 110.066406 46.464844 113.28125 46.464844 C 113.28125 47.746094 113.28125 48.878906 113.28125 50.167969 C 110.179688 50.167969 107.0625 50.167969 103.871094 50.167969 C 103.871094 51.6875 103.871094 53.054688 103.871094 54.589844 C 107.152344 54.589844 110.421875 54.589844 113.820312 54.589844 Z M 113.820312 54.589844 "/>
<path style=" stroke:none;fill-rule:nonzero;fill:rgb(14.509805%,20.784314%,25.098041%);fill-opacity:1;" d="M 125.109375 38.183594 C 126.878906 38.355469 128.597656 38.292969 130.148438 38.769531 C 133.230469 39.714844 134.910156 41.964844 135.15625 45.320312 C 133.675781 45.320312 132.214844 45.320312 130.65625 45.320312 C 130.234375 43.257812 129.023438 42.058594 126.78125 42 C 124.726562 41.945312 123.28125 42.835938 122.542969 44.710938 C 121.554688 47.210938 121.503906 49.792969 122.488281 52.300781 C 123.472656 54.808594 126.316406 56.03125 128.523438 54.742188 C 129.613281 54.105469 130.316406 52.800781 131.4375 51.523438 C 132.339844 51.523438 133.765625 51.523438 135.1875 51.523438 C 135.449219 54.617188 133.105469 57.714844 129.746094 58.617188 C 127.230469 59.289062 124.691406 59.195312 122.230469 58.339844 C 119.632812 57.433594 118.03125 55.492188 117.3125 52.902344 C 116.558594 50.179688 116.59375 47.394531 117.355469 44.667969 C 118.4375 40.808594 121.0625 38.71875 125.109375 38.183594 Z M 125.109375 38.183594 "/>
<path style=" stroke:none;fill-rule:nonzero;fill:rgb(98.039216%,99.215686%,98.039216%);fill-opacity:1;" d="M 66.082031 59.386719 C 65.917969 57.929688 65.742188 56.59375 65.546875 55.113281 C 66.390625 55.113281 67.46875 55.113281 68.546875 55.113281 C 69.652344 55.113281 70.757812 55.113281 72.0625 55.113281 C 70.859375 57.421875 70.601562 59.648438 72.386719 61.863281 C 69.835938 61.863281 67.484375 61.863281 65.085938 61.863281 C 65.441406 61.011719 65.753906 60.257812 66.082031 59.386719 Z M 66.082031 59.386719 "/>
<path style=" stroke:none;fill-rule:nonzero;fill:rgb(95.686275%,98.431373%,95.686275%);fill-opacity:1;" d="M 79.496094 57.585938 C 79.773438 59.6875 78.824219 61.167969 77.058594 61.539062 C 75.332031 61.898438 73.703125 60.878906 73.265625 59.160156 C 72.855469 57.542969 73.769531 55.839844 75.347656 55.292969 C 77.089844 54.6875 78.640625 55.507812 79.496094 57.585938 M 76.933594 59.746094 C 77.214844 59.179688 77.648438 58.628906 77.710938 58.035156 C 77.742188 57.738281 77.15625 57.191406 76.753906 57.070312 C 75.898438 56.808594 75.203125 57.15625 74.996094 58.105469 C 74.769531 59.125 75.378906 59.707031 76.933594 59.746094 Z M 76.933594 59.746094 "/>
<path style=" stroke:none;fill-rule:nonzero;fill:rgb(96.078432%,98.823529%,96.078432%);fill-opacity:1;" d="M 62.1875 61.320312 C 60.613281 61.898438 59.324219 61.585938 58.339844 60.386719 C 57.460938 59.324219 57.398438 58.074219 58.023438 56.871094 C 58.648438 55.664062 59.699219 55.046875 61.089844 55.128906 C 62.445312 55.210938 63.597656 56.191406 63.964844 57.554688 C 64.375 59.082031 63.851562 60.242188 62.1875 61.320312 M 61.78125 59.519531 C 62.53125 58.335938 62.382812 57.300781 61.339844 57.101562 C 60.84375 57.003906 60.066406 57.195312 59.78125 57.550781 C 59.5 57.898438 59.445312 58.910156 59.703125 59.117188 C 60.171875 59.492188 60.945312 59.488281 61.78125 59.519531 Z M 61.78125 59.519531 "/>
<path style=" stroke:none;fill-rule:nonzero;fill:rgb(99.215686%,99.215686%,99.215686%);fill-opacity:1;" d="M 146.28125 42.070312 C 149.894531 41.878906 151.714844 43.183594 152.085938 46.621094 C 152.28125 48.457031 152.058594 50.417969 151.609375 52.21875 C 151.105469 54.238281 149.507812 55.132812 147.40625 55.148438 C 145.183594 55.164062 143.730469 54.277344 143.003906 52.246094 C 142.140625 49.816406 142.179688 47.339844 143.003906 44.894531 C 143.515625 43.371094 144.59375 42.4375 146.28125 42.070312 Z M 146.28125 42.070312 "/>
<path style=" stroke:none;fill-rule:nonzero;fill:rgb(97.647059%,97.647059%,97.647059%);fill-opacity:1;" d="M 238.9375 42.558594 C 240.179688 42.566406 241.292969 42.523438 242.402344 42.597656 C 244.019531 42.707031 244.738281 43.445312 244.785156 44.910156 C 244.835938 46.453125 244.105469 47.40625 242.535156 47.519531 C 240.933594 47.632812 239.320312 47.542969 237.636719 47.542969 C 237.636719 45.898438 237.636719 44.339844 237.636719 42.648438 C 238.015625 42.621094 238.410156 42.589844 238.9375 42.558594 Z M 238.9375 42.558594 "/>
<path style=" stroke:none;fill-rule:nonzero;fill:rgb(8.235294%,69.411767%,8.235294%);fill-opacity:1;" d="M 76.824219 59.777344 C 75.378906 59.707031 74.769531 59.125 74.996094 58.105469 C 75.203125 57.15625 75.898438 56.808594 76.753906 57.070312 C 77.15625 57.191406 77.742188 57.738281 77.710938 58.035156 C 77.648438 58.628906 77.214844 59.179688 76.824219 59.777344 Z M 76.824219 59.777344 "/>
<path style=" stroke:none;fill-rule:nonzero;fill:rgb(8.235294%,69.411767%,8.235294%);fill-opacity:1;" d="M 61.683594 59.582031 C 60.945312 59.488281 60.171875 59.492188 59.703125 59.117188 C 59.445312 58.910156 59.5 57.898438 59.78125 57.550781 C 60.066406 57.195312 60.84375 57.003906 61.339844 57.101562 C 62.382812 57.300781 62.53125 58.335938 61.683594 59.582031 Z M 61.683594 59.582031 "/>
</g>
</svg>
